<svg xmlns="http://www.w3.org/2000/svg" xmlns:xlink="http://www.w3.org/1999/xlink" width="500" zoomAndPan="magnify" viewBox="0 0 375 374.999991" height="500" preserveAspectRatio="xMidYMid meet" version="1.0"><defs><clipPath id="d60a2f8315"><path d="M 65.34375 190 L 130 190 L 130 317 L 65.34375 317 Z M 65.34375 190 " clip-rule="nonzero"/></clipPath><clipPath id="f2a4f6d771"><path d="M 224 191.460938 L 309.71875 191.460938 L 309.71875 217.765625 L 224 217.765625 Z M 224 191.460938 " clip-rule="nonzero"/></clipPath></defs><path fill="#282158" d="M 130.0625 152.257812 C 130.0625 152.257812 136.523438 157.496094 127.96875 162.730469 C 119.414062 167.964844 113.042969 162.730469 112.910156 159.753906 L 130.0625 152.257812 " fill-opacity="1" fill-rule="nonzero"/><g clip-path="url(#d60a2f8315)"><path fill="#fcd6d8" d="M 66.816406 303.488281 C 65.695312 301.765625 65.460938 299.621094 66.199219 297.707031 C 68 293.027344 71.953125 283.484375 77.441406 274.121094 C 85.117188 261.035156 87.222656 244.488281 88.277344 240.574219 C 89.328125 236.664062 91.433594 215.300781 94.746094 209.136719 C 98.058594 202.964844 104.847656 195.566406 108.742188 196.046875 C 109.695312 196.164062 110.738281 196.242188 111.816406 196.289062 C 114.078125 192.449219 118.402344 185.539062 121.085938 196.179688 C 121.488281 196.160156 121.84375 196.136719 122.144531 196.117188 C 122.980469 196.0625 123.816406 196.226562 124.558594 196.617188 C 126.515625 197.644531 129.414062 200.148438 125.039062 204.921875 C 125.039062 204.921875 127.550781 205.976562 128.605469 207.628906 C 129.660156 209.285156 128.90625 215.753906 126.046875 216.804688 C 126.046875 216.804688 129.507812 222.070312 126.046875 226.28125 C 126.046875 226.28125 128.152344 227.9375 126.199219 232.453125 C 124.242188 236.964844 121.683594 239.972656 118.222656 241.476562 C 114.761719 242.980469 109.34375 249 108.890625 251.40625 C 108.441406 253.8125 105.28125 297.140625 102.421875 308.722656 C 102.421875 308.722656 82.925781 328.1875 66.816406 303.488281 " fill-opacity="1" fill-rule="nonzero"/></g><path fill="#f36833" d="M 121.085938 196.179688 C 122.699219 181.371094 124.628906 161.164062 125.082031 156.371094 C 125.152344 155.652344 124.863281 154.945312 124.308594 154.480469 C 121.5625 152.179688 118.542969 152.675781 116.960938 153.191406 C 116.289062 153.410156 115.820312 154.015625 115.753906 154.71875 L 111.816406 196.289062 C 115.179688 196.441406 118.851562 196.300781 121.085938 196.179688 Z M 114.296875 230.289062 C 114.765625 231.597656 118.402344 232.902344 118.402344 232.902344 C 118.402344 232.902344 111.871094 290.246094 112.058594 290.714844 C 107.023438 293.691406 102.734375 290.714844 102.734375 290.714844 L 109.074219 231.222656 L 114.296875 230.289062 " fill-opacity="1" fill-rule="nonzero"/><path fill="#e39ca3" d="M 115.101562 199.632812 C 115.507812 199.683594 115.917969 199.707031 116.324219 199.707031 C 117.5 199.707031 118.675781 199.503906 119.78125 199.097656 C 120.394531 198.875 121.265625 198.480469 121.742188 197.699219 L 121.273438 197.414062 C 120.980469 197.902344 120.445312 198.273438 119.59375 198.585938 C 118.183594 199.101562 116.65625 199.277344 115.167969 199.09375 C 115.039062 199.074219 115.007812 199.058594 115.007812 199.058594 C 115.007812 199.050781 115.003906 199.023438 115.015625 198.941406 C 115.101562 198.339844 115.355469 197.773438 115.742188 197.304688 L 115.320312 196.957031 C 114.871094 197.503906 114.578125 198.164062 114.472656 198.863281 C 114.453125 199.007812 114.445312 199.179688 114.539062 199.339844 C 114.6875 199.582031 114.976562 199.617188 115.101562 199.632812 Z M 99.300781 243.476562 C 99.050781 243.277344 98.804688 243.074219 98.5625 242.871094 C 97.746094 242.195312 96.902344 241.496094 95.898438 241.070312 C 95.273438 240.800781 94.597656 240.648438 93.945312 240.5 C 93.011719 240.285156 92.128906 240.085938 91.390625 239.574219 L 91.082031 240.023438 C 91.90625 240.59375 92.882812 240.816406 93.824219 241.03125 C 94.453125 241.175781 95.101562 241.320312 95.683594 241.570312 C 96.613281 241.96875 97.429688 242.640625 98.210938 243.292969 C 98.460938 243.5 98.710938 243.703125 98.964844 243.902344 C 99.839844 244.589844 101.152344 245.480469 102.648438 245.480469 C 102.722656 245.480469 102.796875 245.480469 102.871094 245.472656 L 102.839844 244.929688 C 101.773438 244.992188 100.648438 244.53125 99.300781 243.476562 Z M 102.984375 232.535156 C 102.09375 233.714844 100.9375 234.710938 99.640625 235.421875 C 99.421875 235.542969 99.199219 235.65625 98.976562 235.769531 C 98.183594 236.167969 97.371094 236.582031 96.777344 237.285156 L 97.195312 237.636719 C 97.714844 237.019531 98.449219 236.648438 99.222656 236.257812 C 99.453125 236.144531 99.679688 236.023438 99.90625 235.902344 C 101.269531 235.15625 102.484375 234.105469 103.421875 232.863281 C 104.007812 232.085938 104.488281 231.238281 104.949219 230.417969 L 104.472656 230.148438 C 104.019531 230.953125 103.550781 231.785156 102.984375 232.535156 Z M 118.246094 237.167969 L 117.78125 237.453125 C 118.214844 238.152344 118.949219 238.667969 119.753906 238.835938 L 119.867188 238.300781 C 119.207031 238.167969 118.601562 237.742188 118.246094 237.167969 Z M 119.769531 233.085938 C 119.304688 233.070312 118.917969 232.957031 118.617188 232.75 L 118.308594 233.203125 C 118.695312 233.464844 119.179688 233.613281 119.75 233.632812 C 119.804688 233.632812 119.859375 233.636719 119.914062 233.636719 C 120.339844 233.636719 120.757812 233.574219 121.164062 233.511719 L 121.082031 232.972656 C 120.652344 233.035156 120.203125 233.105469 119.769531 233.085938 Z M 121.125 224.042969 C 119.109375 223.089844 117.027344 222.101562 114.757812 222.019531 C 111.710938 221.902344 108.832031 223.472656 106.507812 224.726562 L 106.71875 224.5625 C 105.9375 223.566406 105.480469 222.320312 105.425781 221.054688 C 105.394531 220.351562 105.484375 219.328125 106.078125 218.484375 C 106.515625 217.863281 107.207031 217.371094 108.128906 217.019531 C 108.824219 216.753906 109.578125 216.597656 110.304688 216.441406 L 110.722656 216.355469 C 112.707031 215.925781 114.429688 215.394531 115.992188 214.726562 L 116.417969 214.542969 C 116.945312 214.308594 117.496094 214.066406 118.050781 213.917969 C 118.976562 213.671875 119.953125 213.667969 120.792969 213.695312 C 121.109375 213.707031 121.390625 213.722656 121.640625 213.820312 C 121.878906 213.914062 122.097656 214.085938 122.308594 214.25 L 125.695312 216.921875 L 126.03125 216.492188 L 122.644531 213.824219 C 122.414062 213.640625 122.152344 213.433594 121.839844 213.3125 C 121.507812 213.183594 121.164062 213.160156 120.8125 213.148438 C 119.933594 213.121094 118.902344 213.125 117.910156 213.390625 C 117.3125 213.550781 116.746094 213.796875 116.199219 214.042969 L 115.777344 214.222656 C 114.246094 214.878906 112.554688 215.402344 110.609375 215.824219 L 110.191406 215.910156 C 109.445312 216.066406 108.667969 216.230469 107.933594 216.507812 C 106.910156 216.898438 106.132812 217.457031 105.632812 218.171875 C 104.949219 219.140625 104.84375 220.285156 104.882812 221.078125 C 104.9375 222.441406 105.429688 223.78125 106.261719 224.863281 C 105.941406 225.042969 105.609375 225.25 105.339844 225.53125 C 104.648438 226.246094 104.417969 227.410156 104.738281 228.566406 C 105.011719 229.574219 105.632812 230.457031 106.179688 231.238281 C 106.507812 231.707031 106.878906 232.234375 107.441406 232.554688 C 107.796875 232.757812 108.214844 232.863281 108.652344 232.863281 C 108.796875 232.863281 108.941406 232.851562 109.089844 232.828125 L 109.003906 232.289062 C 108.539062 232.363281 108.078125 232.289062 107.710938 232.082031 C 107.253906 231.820312 106.921875 231.34375 106.625 230.921875 C 106.082031 230.144531 105.515625 229.339844 105.261719 228.421875 C 105.054688 227.660156 105.066406 226.597656 105.734375 225.910156 C 106.015625 225.617188 106.394531 225.410156 106.761719 225.210938 C 109.027344 223.984375 111.855469 222.46875 114.738281 222.5625 C 116.898438 222.640625 118.835938 223.5625 120.890625 224.535156 C 122.527344 225.3125 124.21875 226.117188 126.027344 226.441406 L 126.121094 225.90625 C 124.386719 225.59375 122.726562 224.804688 121.125 224.042969 Z M 110.027344 209.902344 C 107.710938 211.273438 106.28125 214 106.472656 216.683594 L 107.015625 216.648438 C 106.839844 214.160156 108.164062 211.640625 110.308594 210.371094 C 111.074219 209.917969 111.949219 209.605469 112.722656 209.335938 C 116.796875 207.894531 120.949219 206.503906 125.066406 205.203125 L 124.902344 204.683594 C 120.78125 205.984375 116.621094 207.378906 112.542969 208.820312 C 111.746094 209.101562 110.839844 209.421875 110.027344 209.902344 Z M 99.34375 215.914062 L 99.28125 215.375 C 101.21875 215.144531 103.105469 214.632812 104.894531 213.851562 C 105.445312 213.609375 105.886719 213.382812 106.242188 213.050781 C 106.640625 212.6875 106.867188 212.230469 106.871094 211.800781 C 106.871094 210.9375 107.136719 209.75 107.722656 209.035156 C 107.960938 208.746094 108.238281 208.492188 108.503906 208.246094 C 108.6875 208.082031 108.871094 207.914062 109.042969 207.730469 C 109.507812 207.238281 109.746094 206.757812 109.75 206.300781 L 109.886719 206.304688 C 109.058594 206.050781 108.277344 205.652344 107.605469 205.109375 L 107.945312 204.683594 C 109.492188 205.929688 111.648438 206.382812 113.566406 205.863281 C 114.039062 205.734375 114.496094 205.554688 114.964844 205.359375 C 116.515625 204.726562 118.53125 203.851562 120.375 202.71875 C 120.921875 202.382812 121.542969 201.96875 122.035156 201.445312 C 123.164062 200.246094 123.578125 198.390625 123.078125 196.824219 L 123.597656 196.660156 C 124.167969 198.433594 123.710938 200.460938 122.433594 201.820312 C 121.898438 202.390625 121.238281 202.828125 120.660156 203.179688 C 118.785156 204.335938 116.742188 205.222656 115.171875 205.867188 C 114.6875 206.066406 114.210938 206.253906 113.710938 206.390625 C 113.136719 206.546875 112.546875 206.621094 111.957031 206.621094 C 111.394531 206.621094 110.832031 206.550781 110.285156 206.414062 C 110.246094 206.976562 109.96875 207.546875 109.4375 208.109375 C 109.257812 208.296875 109.066406 208.472656 108.875 208.652344 C 108.609375 208.894531 108.359375 209.121094 108.144531 209.382812 C 107.644531 209.992188 107.417969 211.035156 107.414062 211.804688 C 107.414062 212.386719 107.121094 212.988281 106.613281 213.453125 C 106.171875 213.859375 105.632812 214.125 105.113281 214.351562 C 103.277344 215.15625 101.332031 215.683594 99.34375 215.914062 " fill-opacity="1" fill-rule="nonzero"/><path fill="#ee2036" d="M 236.996094 123.714844 L 239.84375 104.828125 C 252.335938 110.667969 261.785156 105.953125 275.351562 106.160156 C 290.242188 106.382812 299.785156 111.417969 302.414062 115.347656 C 302.742188 120.242188 303.074219 125.144531 303.410156 130.050781 C 301.671875 135.832031 295.410156 133.328125 290.519531 132.070312 C 283.609375 130.296875 274.90625 127.585938 267.769531 127.4375 C 257.601562 127.226562 239.953125 134.679688 236.996094 123.714844 " fill-opacity="1" fill-rule="nonzero"/><path fill="#f36833" d="M 288.054688 148.003906 C 271.402344 144.320312 249.949219 153.21875 234.191406 142.34375 L 236.996094 123.714844 C 247.078125 124.25 257.535156 122.832031 267.707031 123.046875 C 274.84375 123.195312 281.957031 124.179688 288.867188 125.957031 C 293.761719 127.210938 298.425781 129.207031 303.410156 130.050781 C 303.78125 135.496094 304.152344 140.949219 304.527344 146.398438 C 304.40625 146.355469 304.28125 146.207031 304.160156 146.265625 C 299.789062 148.253906 294.554688 149.441406 288.054688 148.003906 " fill-opacity="1" fill-rule="nonzero"/><path fill="#fbc837" d="M 279.941406 162.195312 C 270.234375 161.902344 260.25 162.011719 250.675781 163.644531 C 244.425781 164.710938 235.027344 163.84375 231.433594 160.664062 L 234.191406 142.34375 C 251.167969 141.429688 268.640625 136.140625 285.292969 139.824219 C 291.796875 141.261719 297.914062 144.03125 304.160156 146.265625 C 304.289062 146.308594 304.40625 146.355469 304.527344 146.398438 C 304.871094 151.347656 305.210938 156.292969 305.554688 161.242188 C 303.410156 164.226562 298.507812 165.738281 295.589844 164.949219 C 290.261719 163.511719 285.472656 162.367188 279.941406 162.195312 " fill-opacity="1" fill-rule="nonzero"/><path fill="#2da441" d="M 298.632812 183.925781 C 288.824219 181.921875 279.359375 180.628906 269.359375 181.796875 C 263.09375 182.53125 253.886719 183.804688 247.632812 184.648438 C 240.738281 185.582031 230.246094 186.820312 228.617188 179.375 L 231.433594 160.664062 C 237.722656 161.128906 244.167969 160.382812 250.417969 159.316406 C 259.992188 157.683594 269.554688 155.34375 279.265625 155.636719 C 284.792969 155.804688 290.253906 156.839844 295.585938 158.277344 C 298.5 159.066406 302.453125 159.75 305.554688 161.242188 C 305.984375 167.441406 306.414062 173.640625 306.84375 179.835938 C 305.007812 181.796875 300.996094 184.40625 298.632812 183.925781 " fill-opacity="1" fill-rule="nonzero"/><path fill="#4d62b7" d="M 308.152344 198.851562 C 298.050781 204.613281 280.707031 198.328125 266.179688 199.710938 C 257.914062 200.5 247.636719 198.054688 239.375 198.851562 C 234.570312 199.316406 228.617188 198.898438 226.261719 195.003906 L 228.617188 179.375 C 235.539062 180.132812 242.515625 180.214844 249.410156 179.28125 C 255.667969 178.4375 261.792969 176.769531 268.058594 176.039062 C 278.058594 174.871094 288.144531 176.121094 297.953125 178.121094 C 300.316406 178.601562 304.117188 178.800781 306.84375 179.835938 C 307.28125 186.179688 307.71875 192.519531 308.152344 198.851562 " fill-opacity="1" fill-rule="nonzero"/><g clip-path="url(#f2a4f6d771)"><path fill="#8b5cb4" d="M 308.152344 198.851562 C 308.503906 204.015625 308.859375 209.183594 309.203125 214.332031 C 309.324219 216.1875 308.589844 216.230469 309.722656 217.710938 C 295.144531 210.480469 278.765625 206.925781 262.5 207.464844 C 249.753906 207.890625 236.277344 210.933594 224.171875 206.914062 L 226.261719 195.003906 C 230.957031 196.023438 235.941406 196.082031 240.746094 195.621094 C 249.007812 194.820312 257.089844 192.636719 265.351562 191.847656 C 279.882812 190.464844 294.546875 193.46875 308.152344 198.851562 " fill-opacity="1" fill-rule="nonzero"/></g><path fill="#282158" d="M 224.144531 184.609375 C 219.585938 201.800781 224.171875 206.914062 224.171875 206.914062 C 223.808594 205.332031 227.441406 203.949219 232.246094 202.808594 C 237.050781 201.671875 243.6875 199.953125 244.734375 194.078125 C 244.734375 194.078125 228.707031 167.421875 224.144531 184.609375 Z M 110.332031 288.648438 C 110.113281 288.476562 109.839844 288.402344 109.570312 288.332031 C 108.925781 288.164062 108.265625 288.007812 107.605469 288.050781 C 106.726562 288.109375 105.914062 288.523438 105.128906 288.921875 C 104.726562 289.128906 104.300781 289.359375 104.089844 289.757812 C 104.003906 289.921875 103.953125 290.101562 103.839844 290.242188 C 103.722656 290.382812 103.59375 290.441406 103.511719 290.277344 C 103.390625 290.03125 103.515625 289.738281 103.667969 289.503906 C 104.71875 287.886719 106.894531 287.257812 108.789062 287.621094 C 109.261719 287.710938 109.734375 287.859375 110.128906 288.136719 C 110.722656 288.546875 111.09375 289.203125 111.441406 289.832031 C 111.046875 289.59375 110.695312 288.933594 110.332031 288.648438 " fill-opacity="1" fill-rule="nonzero"/><path fill="#ee2036" d="M 122.226562 65.976562 C 122.832031 59.878906 123.4375 53.785156 124.042969 47.6875 C 141.496094 46.933594 161.375 50.40625 176.527344 59.101562 C 186.023438 64.554688 194.511719 71.664062 204.144531 76.875 C 217.296875 83.992188 230.121094 87.472656 245.054688 86.644531 C 246.558594 88.925781 247.769531 93.445312 248.671875 99.480469 C 235.03125 109.53125 214.054688 103.128906 198.503906 94.769531 C 191.152344 90.820312 184.597656 85.535156 176.992188 82.105469 C 169.347656 78.660156 160.734375 77.578125 152.445312 76.476562 C 144.914062 75.472656 136.792969 71.992188 129.199219 72 C 126.96875 72.003906 123.566406 69.980469 122.226562 65.976562 " fill-opacity="1" fill-rule="nonzero"/><path fill="#f36833" d="M 250.15625 115.140625 C 242.683594 124.394531 226.597656 125.375 214.386719 121.222656 C 205.472656 118.191406 195.074219 112.460938 186.664062 108.230469 C 179.082031 104.417969 170.890625 98.089844 162.839844 95.382812 C 150.058594 91.085938 128.765625 88.601562 120.613281 82.203125 C 121.152344 76.792969 121.6875 71.382812 122.226562 65.976562 C 124.597656 66.058594 126.953125 66.183594 129.183594 66.183594 C 136.773438 66.171875 144.386719 66.433594 151.917969 67.433594 C 160.207031 68.539062 168.40625 70.546875 176.050781 73.992188 C 183.65625 77.425781 190.570312 82.203125 197.921875 86.152344 C 213.46875 94.511719 231.019531 99.109375 248.671875 99.480469 C 249.339844 103.964844 249.835938 109.28125 250.15625 115.140625 " fill-opacity="1" fill-rule="nonzero"/><path fill="#fbc837" d="M 212.003906 109.863281 C 224.21875 114.015625 237.199219 114.898438 250.15625 115.140625 C 250.515625 121.683594 250.652344 128.894531 250.558594 136.378906 C 239.21875 144.027344 220.265625 139.363281 206.011719 133.058594 C 188.933594 125.5 173.191406 114.945312 155.042969 110.542969 C 147.761719 108.773438 139.878906 104.839844 132.402344 104.828125 C 128.839844 104.816406 121.113281 104.828125 118.875 99.691406 C 119.457031 93.863281 120.035156 88.03125 120.613281 82.203125 C 134.671875 80.472656 150.234375 83.679688 163.015625 87.976562 C 171.066406 90.683594 178.863281 94.101562 186.445312 97.914062 C 194.855469 102.148438 203.09375 106.832031 212.003906 109.863281 " fill-opacity="1" fill-rule="nonzero"/><path fill="#2da441" d="M 249.941406 153.726562 C 234.890625 162.070312 213.4375 156.578125 196.914062 148.394531 C 191.699219 145.8125 186.855469 143.511719 181.753906 140.707031 C 174.773438 136.867188 166.011719 135.882812 158.367188 133.632812 C 145.421875 129.828125 132.351562 123.46875 118.875 125.40625 C 118.613281 125.445312 116.925781 121.789062 116.679688 121.832031 C 117.410156 114.453125 118.144531 107.074219 118.875 99.691406 C 123.410156 99.242188 128.6875 99.773438 132.25 99.78125 C 139.726562 99.796875 147.234375 100.398438 154.515625 102.167969 C 172.664062 106.574219 188.292969 117.8125 205.371094 125.371094 C 219.621094 131.675781 235.003906 135.402344 250.558594 136.378906 C 250.484375 142.066406 250.28125 147.910156 249.941406 153.726562 " fill-opacity="1" fill-rule="nonzero"/><path fill="#4d62b7" d="M 229.835938 175.585938 C 217.449219 175.125 204.839844 177.683594 193.738281 172.171875 C 188.082031 169.367188 182.4375 164.667969 177.132812 161.242188 C 169.648438 156.40625 161.007812 152.355469 152.445312 149.890625 C 144.769531 147.675781 137.042969 145.671875 129.058594 145.472656 C 125.890625 145.390625 119.632812 140.175781 114.757812 141.171875 C 115.398438 134.722656 116.035156 128.28125 116.679688 121.832031 C 116.925781 121.789062 117.175781 121.742188 117.441406 121.707031 C 130.917969 119.765625 145.863281 122.0625 158.804688 125.867188 C 166.449219 128.117188 173.855469 131.179688 180.839844 135.019531 C 185.9375 137.824219 190.816406 141.03125 196.035156 143.613281 C 212.558594 151.796875 231.421875 153.285156 249.941406 153.726562 C 249.558594 160.253906 249.003906 166.75 248.269531 172.960938 C 242.09375 172.726562 236.007812 175.816406 229.835938 175.585938 " fill-opacity="1" fill-rule="nonzero"/><path fill="#8b5cb4" d="M 248.269531 172.960938 C 247.363281 180.597656 246.191406 187.796875 244.734375 194.078125 C 240.011719 189.8125 229.503906 194.460938 223.210938 193.949219 C 205.976562 192.546875 194.597656 187.734375 182.800781 180.46875 C 176.617188 176.667969 170.859375 172.191406 164.566406 168.570312 C 149.453125 159.886719 130.148438 157.164062 112.910156 159.753906 C 113.527344 153.558594 114.140625 147.363281 114.757812 141.171875 C 119.632812 140.175781 126.46875 140.796875 129.636719 140.875 C 137.621094 141.078125 145.578125 142.3125 153.253906 144.527344 C 161.8125 146.992188 170.027344 150.683594 177.515625 155.515625 C 182.820312 158.941406 187.792969 162.925781 193.449219 165.734375 C 204.550781 171.242188 217.367188 171.808594 229.753906 172.269531 C 235.921875 172.5 242.09375 172.726562 248.269531 172.960938 " fill-opacity="1" fill-rule="nonzero"/><path fill="#282158" d="M 206.035156 142.261719 C 204.265625 138.378906 201.621094 134.210938 200.839844 130.015625 C 200.75 138.71875 206.488281 146.433594 207.859375 155.03125 C 208.5 150.808594 207.804688 146.148438 206.035156 142.261719 Z M 288.792969 160.539062 C 287.402344 157.386719 285.679688 153.761719 284.789062 150.429688 C 284.832031 158.117188 290.191406 164.890625 290.917969 172.546875 C 290.414062 168.351562 290.496094 164.40625 288.792969 160.539062 Z M 195.875 143.210938 C 193.214844 141.835938 191.738281 138.933594 190.738281 136.113281 C 185.878906 122.382812 188.363281 106.824219 183.136719 93.226562 C 186.078125 95.449219 186.457031 99.476562 186.75 103.152344 C 187.707031 115.148438 190.054688 127.03125 193.730469 138.492188 C 194.28125 140.207031 194.199219 142.535156 195.875 143.210938 " fill-opacity="1" fill-rule="nonzero"/></svg>